# xmcd CD database file
#
# Track frame offsets:
#	150
#	25482
#	39702
#	67140
#	99975
#	122105
#	152262
#	175792
#	181597
#	204762
#
# Disc length: 2926 seconds
#
# Revision: 0
# Processed by: cddbd v1.5.1PL0 Copyright (c) Steve Scherf et al.
# Submitted via: CDex 1.51
#
DISCID=780b6c0a
DTITLE=Cadillac Joe and the Blind Wolf Blues Band - The Adventures of...
DYEAR=2000
DGENRE=Blues
TTITLE0=$50 Bill
TTITLE1=Break Song #29
TTITLE2=Drive Me Crazy
TTITLE3=Creepin' In
TTITLE4=Blind Wolf
TTITLE5=Dues for the Blues
TTITLE6=A Storm A Comin'
TTITLE7=The Adventure
TTITLE8=Monty's Mood
TTITLE9=Green Grass
EXTD=YEAR: 2000
EXTT0=
EXTT1=
EXTT2=
EXTT3=
EXTT4=
EXTT5=
EXTT6=
EXTT7=
EXTT8=
EXTT9=
PLAYORDER=
